<svg width="42" height="50" viewBox="0 0 42 50" fill="none" xmlns="http://www.w3.org/2000/svg">
  <style>
    .first {
      fill: #ec1922;
    }

    .second {
      fill: #222222;
    }

    .dark-mode .first {
      fill: rgb(240, 51, 59);
    }

    .dark-mode .second {
      fill: #fff;
    }
  </style>

  <path class="second" d="M34.1158 0.000353776C32.076 0.00432647 29.2338 0.0412383 28.8935 0.0777863C27.7357 0.202146 26.3624 0.535951 25.9132 0.802199C25.8091 0.86387 25.6665 0.914292 25.5963 0.914292C25.4018 0.914292 24.7237 1.25652 23.6953 1.87356C22.0817 2.84174 20.417 4.62295 19.6189 6.23503C19.1026 7.27789 18.9185 7.71058 18.8515 8.03953C18.812 8.23316 18.7309 8.47699 18.6711 8.58139C18.5536 8.7867 18.426 9.43717 18.2795 10.5774C18.1532 11.5603 18.2776 20.7242 18.2776 20.7242L18.1964 31.7699C18.1791 37.7294 18.2005 38.7863 18.3642 40.0181C18.4693 40.8095 18.7328 41.831 18.8917 42.0635C18.9364 42.1288 18.9729 42.2559 18.9729 42.3459C18.9729 42.436 18.9995 42.5259 19.032 42.5458C19.0645 42.5657 19.1314 42.717 19.1808 42.8818C19.2301 43.0466 19.399 43.4045 19.5561 43.6769C19.7132 43.9494 19.8864 44.2536 19.941 44.3529C20.4397 45.2603 21.3932 46.3597 22.4011 47.1898C23.2711 47.9063 23.3719 47.9817 23.6525 48.1259C23.7986 48.201 24.0136 48.3269 24.1305 48.4057C24.3544 48.5569 25.0072 48.8693 25.617 49.1172C25.8173 49.1986 26.0357 49.2893 26.1025 49.3189C26.4616 49.478 27.9109 49.8139 28.6509 49.9095C29.5406 50.0244 30.6701 50.0305 31.4117 49.9243C31.6286 49.8933 31.9699 49.8512 32.1702 49.8308C32.87 49.7597 34.5928 49.1889 35.477 48.7351C36.2826 48.3217 36.7654 48.0359 37.0599 47.7981C38.1305 46.9336 38.4112 46.6913 38.7536 46.3361C39.0924 45.9848 39.3153 45.714 40.0148 44.8045C40.2898 44.4468 41.0246 43.0463 41.1836 42.5769C41.2789 42.2955 41.4155 41.9026 41.4873 41.7039C41.6289 41.3117 41.7263 40.863 41.8925 39.8375C41.9905 39.2329 42.0034 38.596 41.9999 32.5224L41.9958 30.704L36.2649 30.6959L36.2637 32.6128C36.2637 38.9936 36.2586 39.1258 35.9738 40.1084C35.8154 40.6548 35.4387 41.4187 35.113 41.8537C34.7037 42.4004 33.9164 43.1045 33.3533 43.4272C32.3934 43.9774 32.0766 44.1024 31.2904 44.2416C29.691 44.5248 28.386 44.2953 26.9573 43.4797C26.6749 43.3184 26.3896 43.1419 26.3235 43.0875C26.0952 42.9 25.2525 42.049 25.0947 41.8466C24.873 41.5622 24.4188 40.6403 24.2532 40.1386C23.9569 39.2409 23.9521 39.1337 23.9505 32.1155L23.9481 20.7739C24.2046 20.7727 24.4413 20.772 24.7169 20.7705L28.0183 20.7522C28.4217 20.7605 35.3653 20.7613 35.7687 20.7624L35.8436 15.0712L27.2436 15.0626L24.1373 15.0627L24.0429 14.9289C23.9643 14.8176 23.9484 14.5712 23.9484 13.4632C23.9484 11.834 24.0469 10.2819 24.1656 10.0413C24.213 9.94517 24.2518 9.84301 24.2518 9.81431C24.2518 9.71035 24.7572 8.70301 24.9714 8.37986C25.3042 7.87797 26.1715 7.01045 26.651 6.69989C27.1602 6.37004 27.8123 6.06728 28.5598 5.81382C28.8667 5.70977 29.1744 5.69827 32.3825 5.67059L33.3316 5.66238V5.64051H35.8715L35.8872 2.82585L35.903 0.0111912L35.7659 0.00863675C35.3866 0.0014149 34.7957 -0.000972163 34.1158 0.000353776Z"/>
  <path class="first" d="M10.4669 49.9095C9.72691 49.8139 8.27759 49.478 7.91847 49.3189C7.85173 49.2893 7.63331 49.1986 7.43306 49.1172C6.82322 48.8693 6.17041 48.5569 5.94646 48.4057C5.82966 48.3268 5.61459 48.2009 5.46852 48.1259C5.18791 47.9817 5.08715 47.9063 4.21717 47.1898C3.20922 46.3598 2.25573 45.2603 1.75699 44.353C1.70239 44.2536 1.52919 43.9494 1.37211 43.6769C1.21503 43.4044 1.04616 43.0466 0.996821 42.8818C0.947484 42.7169 0.880517 42.5657 0.848014 42.5458C0.815512 42.5259 0.788898 42.4359 0.788898 42.3459C0.788898 42.2559 0.752382 42.1288 0.707725 42.0635C0.548776 41.8309 0.285351 40.8095 0.180214 40.0181C0.0165861 38.7863 -0.00490414 37.7294 0.0124273 31.7699L0.0278499 30.7071L2.89745 30.7062L5.76419 30.7071L5.76657 32.1155C5.77857 39.1336 5.77292 39.2409 6.06917 40.1385C6.23475 40.6402 6.68902 41.5622 6.91076 41.8466C7.06854 42.049 7.91117 42.9 8.13943 43.0876C8.20558 43.1419 8.49085 43.3184 8.77335 43.4797C10.202 44.2954 11.5069 44.5248 13.1064 44.2417C13.8926 44.1025 14.2095 43.9773 15.1694 43.4271C15.7324 43.1044 16.5197 42.4004 16.929 41.8536C17.2546 41.4186 17.6314 40.6548 17.7898 40.1084C18.0746 39.1258 18.0797 38.9936 18.0797 32.6128C18.0797 29.3015 18.0551 26.3595 18.0249 26.0752C17.9497 25.3668 17.7679 24.7895 17.3632 23.9745C17.0634 23.3707 16.9474 23.2082 16.4445 22.6881C16.128 22.3606 16.033 22.1665 14.6192 21.4563C14.1051 21.198 13.1682 20.8631 12.4903 20.8405L9.83425 20.7522L6.53296 20.7704C2.07598 20.795 0.148461 20.7694 0.0936213 20.7242C-0.0324299 20.6204 -0.0306534 11.5603 0.0956721 10.5774C0.24214 9.43719 0.369769 8.7867 0.487266 8.58139C0.547009 8.47699 0.628171 8.23315 0.667651 8.03953C0.734713 7.71057 0.918728 7.27785 1.43502 6.23499C2.23312 4.62291 3.89791 2.84173 5.51146 1.87355C6.53982 1.25651 7.21799 0.914316 7.41251 0.914316C7.48271 0.914316 7.6253 0.863858 7.72933 0.802185C8.17856 0.535939 9.55182 0.202162 10.7097 0.0778034C11.1634 0.0290708 16.065 -0.0202762 17.582 0.00861352L17.7191 0.0112246L17.7033 2.82586L17.6876 5.64049L14.1986 5.67059C10.9906 5.69827 10.6828 5.7098 10.376 5.81385C9.62845 6.06731 8.97624 6.37003 8.46705 6.69987C7.9876 7.01043 7.12032 7.87797 6.78753 8.37986C6.57324 8.70301 6.06787 9.71037 6.06787 9.81433C6.06787 9.84303 6.02907 9.94518 5.98163 10.0413C5.86299 10.2819 5.76448 11.834 5.76448 13.4632C5.76448 14.5712 5.78043 14.8176 5.85894 14.9289L5.9534 15.0627L9.05966 15.0626C12.1459 15.0625 13.7166 15.1379 14.2289 15.3107C14.3291 15.3444 14.5339 15.3938 14.684 15.4204C15.1249 15.4986 15.5462 15.6161 15.8105 15.7347C15.9462 15.7956 16.098 15.8454 16.1478 15.8454C16.1977 15.8454 16.2915 15.8852 16.3562 15.9338C16.421 15.9824 16.5081 16.0231 16.5497 16.0241C16.7584 16.0294 18.4134 16.913 18.7494 17.1984C18.8328 17.2693 19.0103 17.3968 19.1438 17.4818C19.4646 17.6859 20.625 18.7544 21.0067 19.1971C21.1731 19.3901 21.3527 19.6361 21.4058 19.7437C21.4589 19.8514 21.5244 19.9394 21.5514 19.9394C21.6394 19.9394 22.2336 20.9152 22.6147 21.6854C23.0086 22.4813 23.159 22.8465 23.2348 23.1905C23.2604 23.3064 23.3255 23.5367 23.3795 23.7023C23.4834 24.0207 23.6045 24.593 23.7362 25.3881C23.7987 25.7654 23.8159 27.3102 23.8159 32.5225C23.8159 38.596 23.8067 39.2329 23.7086 39.8375C23.5424 40.8631 23.445 41.3117 23.3034 41.7039C23.2316 41.9026 23.095 42.2954 22.9997 42.5769C22.8407 43.0463 22.1058 44.4469 21.8308 44.8045C21.1314 45.7141 20.9085 45.9848 20.5697 46.3362C20.2273 46.6913 19.9466 46.9336 18.876 47.7981C18.5815 48.0359 18.0988 48.3217 17.2932 48.7351C16.4089 49.1889 14.6861 49.7597 13.9862 49.8308C13.786 49.8512 13.4447 49.8932 13.2278 49.9243C12.4862 50.0305 11.3566 50.0244 10.4669 49.9095Z"/>
</svg>
