<svg xmlns="http://www.w3.org/2000/svg" xmlns:xlink="http://www.w3.org/1999/xlink"><symbol id="icon-arrow-left" viewBox="0 0 31 16"><path d="M.293 7.293a1 1 0 000 1.414l6.364 6.364a1 1 0 001.414-1.414L2.414 8l5.657-5.657A1 1 0 006.657.93L.293 7.293zM31 7H1v2h30V7z"/></symbol><symbol id="icon-arrow-right" viewBox="0 0 31 16"><path d="M30.707 8.707a1 1 0 000-1.414L24.343.929a1 1 0 10-1.414 1.414L28.586 8l-5.657 5.657a1 1 0 001.414 1.414l6.364-6.364zM0 9h30V7H0v2z"/></symbol><symbol id="icon-copy" viewBox="0 0 12 12"><g clip-path="url(#clip0_2_177)"><path d="M11.524 3.06a.272.272 0 00-.007-.036v.002a.275.275 0 00-.068-.128L9.088.537a.28.28 0 00-.126-.068H8.96a.248.248 0 00-.034-.007h-.002A.256.256 0 008.89.455H5.346a.281.281 0 00-.28.281V9c0 .156.125.282.28.282h5.904A.281.281 0 0011.53 9V3.097a.342.342 0 00-.007-.039v.002h.001zM9.17 1.415l1.4 1.4h-1.4v-1.4zM5.628 8.719V1.017h2.98v2.08c0 .155.125.281.28.281h2.08v5.34h-5.34zm1.025 1.5a.281.281 0 00-.281.281v.476h-5.34V3.274H3.75a.281.281 0 000-.562h-3a.281.281 0 00-.281.28v8.266c0 .155.126.28.281.28h5.903a.281.281 0 00.282-.28V10.5a.281.281 0 00-.282-.281z"/></g><defs><clipPath id="clip0_2_177"><path d="M0 0h12v12H0z"/></clipPath></defs></symbol><symbol id="icon-github" viewBox="0 0 25 26"><path d="M12.5 3c-5.522 0-10 4.478-10 10 0 4.686 3.227 8.607 7.577 9.692a1.459 1.459 0 01-.077-.486v-1.71H8.743c-.684 0-1.292-.293-1.587-.84-.328-.608-.384-1.537-1.196-2.105-.24-.19-.058-.405.22-.376.513.145.938.497 1.338 1.018.398.523.585.641 1.33.641.36 0 .9-.02 1.409-.1.273-.695.745-1.334 1.323-1.636-3.33-.342-4.92-1.999-4.92-4.248 0-.968.413-1.905 1.114-2.694-.23-.784-.519-2.381.088-2.99 1.499 0 2.405.972 2.622 1.235A7.493 7.493 0 0112.912 8a7.49 7.49 0 012.435.402c.216-.26 1.122-1.235 2.624-1.235.61.609.317 2.213.085 2.995.697.787 1.107 1.721 1.107 2.688 0 2.248-1.587 3.903-4.912 4.248.915.477 1.582 1.819 1.582 2.83v2.278c0 .087-.019.149-.029.223C19.701 21.063 22.5 17.363 22.5 13c0-5.522-4.477-10-10-10z"/></symbol><symbol id="icon-linkedin" viewBox="0 0 18 18"><path d="M14.76 1.44H3.24a1.8 1.8 0 00-1.8 1.8v11.52a1.8 1.8 0 001.8 1.8h11.52a1.8 1.8 0 001.8-1.8V3.24a1.8 1.8 0 00-1.8-1.8zM6.12 7.2v6.84H3.96V7.2h2.16zM3.96 5.21c0-.505.432-.89 1.08-.89.648 0 1.055.385 1.08.89 0 .503-.403.91-1.08.91-.648 0-1.08-.407-1.08-.91zm10.08 8.83h-2.16v-3.6c0-.72-.36-1.44-1.26-1.454h-.028c-.872 0-1.232.741-1.232 1.454v3.6H7.2V7.2h2.16v.922s.695-.922 2.092-.922c1.43 0 2.588.983 2.588 2.974v3.866z"/></symbol><symbol id="icon-moon" viewBox="0 0 24 24"><path d="M12 22c5.523 0 10-4.477 10-10 0-.463-.694-.54-.933-.143a6.5 6.5 0 11-8.924-8.924C12.54 2.693 12.463 2 12 2 6.477 2 2 6.477 2 12s4.477 10 10 10z"/></symbol><symbol id="icon-search" viewBox="0 0 25 26"><path d="M10.5 2C5.81 2 2 5.81 2 10.5c0 4.69 3.81 8.5 8.5 8.5 1.855 0 3.57-.598 4.969-1.61l6.578 6.563 1.406-1.406-6.5-6.516A8.461 8.461 0 0019 10.5C19 5.81 15.19 2 10.5 2zm0 1c4.148 0 7.5 3.352 7.5 7.5S14.648 18 10.5 18A7.492 7.492 0 013 10.5C3 6.352 6.352 3 10.5 3z"/></symbol><symbol id="icon-sun" viewBox="0 0 30 30"><g clip-path="url(#clip0_6_522)"><path d="M14.984.986A1 1 0 0014 2v3a1 1 0 102 0V2A1.001 1.001 0 0014.984.986zM5.796 4.8a1 1 0 00-.695 1.717l2.121 2.12a1 1 0 101.414-1.413l-2.12-2.121a1 1 0 00-.72-.303zm18.376 0a1 1 0 00-.688.303l-2.121 2.12a1 1 0 101.414 1.415l2.121-2.121a1 1 0 00-.726-1.717zM15 8a7 7 0 100 14 7 7 0 000-14zM2 14a1 1 0 100 2h3a1 1 0 100-2H2zm23 0a1 1 0 100 2h3a1 1 0 100-2h-3zM7.91 21.06a1 1 0 00-.688.303l-2.12 2.121a1 1 0 101.413 1.414l2.121-2.12a1 1 0 00-.726-1.717zm14.15 0a1 1 0 00-.697 1.717l2.121 2.121a1 1 0 101.414-1.414l-2.121-2.12a1 1 0 00-.717-.303zm-7.076 2.926A1 1 0 0014 25v3a1 1 0 102 0v-3a1 1 0 00-1.016-1.014z"/></g><defs><clipPath id="clip0_6_522"><path d="M0 0h30v30H0z"/></clipPath></defs></symbol> <view id="icon-arrow-left-view" viewBox="0 0 31 16"/><view id="icon-arrow-right-view" viewBox="0 26 31 16"/><view id="icon-copy-view" viewBox="0 52 12 12"/><view id="icon-github-view" viewBox="0 74 25 26"/><view id="icon-linkedin-view" viewBox="0 110 18 18"/><view id="icon-moon-view" viewBox="0 138 24 24"/><view id="icon-search-view" viewBox="0 172 25 26"/><view id="icon-sun-view" viewBox="0 208 30 30"/> <use xlink:href="#icon-arrow-left" x="0" y="0" width="31" height="16"/><use xlink:href="#icon-arrow-right" x="0" y="26" width="31" height="16"/><use xlink:href="#icon-copy" x="0" y="52" width="12" height="12"/><use xlink:href="#icon-github" x="0" y="74" width="25" height="26"/><use xlink:href="#icon-linkedin" x="0" y="110" width="18" height="18"/><use xlink:href="#icon-moon" x="0" y="138" width="24" height="24"/><use xlink:href="#icon-search" x="0" y="172" width="25" height="26"/><use xlink:href="#icon-sun" x="0" y="208" width="30" height="30"/></svg>