<svg xmlns="http://www.w3.org/2000/svg" xmlns:xlink="http://www.w3.org/1999/xlink"><symbol id="icon-github" viewBox="0 0 25 26"><path d="M12.5 3c-5.522 0-10 4.478-10 10 0 4.686 3.227 8.607 7.577 9.692a1.459 1.459 0 01-.077-.486v-1.71H8.743c-.684 0-1.292-.293-1.587-.84-.328-.608-.384-1.537-1.196-2.105-.24-.19-.058-.405.22-.376.513.145.938.497 1.338 1.018.398.523.585.641 1.33.641.36 0 .9-.02 1.409-.1.273-.695.745-1.334 1.323-1.636-3.33-.342-4.92-1.999-4.92-4.248 0-.968.413-1.905 1.114-2.694-.23-.784-.519-2.381.088-2.99 1.499 0 2.405.972 2.622 1.235A7.493 7.493 0 0112.912 8a7.49 7.49 0 012.435.402c.216-.26 1.122-1.235 2.624-1.235.61.609.317 2.213.085 2.995.697.787 1.107 1.721 1.107 2.688 0 2.248-1.587 3.903-4.912 4.248.915.477 1.582 1.819 1.582 2.83v2.278c0 .087-.019.149-.029.223C19.701 21.063 22.5 17.363 22.5 13c0-5.522-4.477-10-10-10z"/></symbol><symbol id="icon-moon" viewBox="0 0 24 24"><path d="M12 22c5.523 0 10-4.477 10-10 0-.463-.694-.54-.933-.143a6.5 6.5 0 11-8.924-8.924C12.54 2.693 12.463 2 12 2 6.477 2 2 6.477 2 12s4.477 10 10 10z"/></symbol><symbol id="icon-search" viewBox="0 0 25 26"><path d="M10.5 2C5.81 2 2 5.81 2 10.5c0 4.69 3.81 8.5 8.5 8.5 1.855 0 3.57-.598 4.969-1.61l6.578 6.563 1.406-1.406-6.5-6.516A8.461 8.461 0 0019 10.5C19 5.81 15.19 2 10.5 2zm0 1c4.148 0 7.5 3.352 7.5 7.5S14.648 18 10.5 18A7.492 7.492 0 013 10.5C3 6.352 6.352 3 10.5 3z"/></symbol><symbol id="icon-sun" viewBox="0 0 30 30"><g clip-path="url(#clip0_6_522)"><path d="M14.984.986A1 1 0 0014 2v3a1 1 0 102 0V2A1.001 1.001 0 0014.984.986zM5.796 4.8a1 1 0 00-.695 1.717l2.121 2.12a1 1 0 101.414-1.413l-2.12-2.121a1 1 0 00-.72-.303zm18.376 0a1 1 0 00-.688.303l-2.121 2.12a1 1 0 101.414 1.415l2.121-2.121a1 1 0 00-.726-1.717zM15 8a7 7 0 100 14 7 7 0 000-14zM2 14a1 1 0 100 2h3a1 1 0 100-2H2zm23 0a1 1 0 100 2h3a1 1 0 100-2h-3zM7.91 21.06a1 1 0 00-.688.303l-2.12 2.121a1 1 0 101.413 1.414l2.121-2.12a1 1 0 00-.726-1.717zm14.15 0a1 1 0 00-.697 1.717l2.121 2.121a1 1 0 101.414-1.414l-2.121-2.12a1 1 0 00-.717-.303zm-7.076 2.926A1 1 0 0014 25v3a1 1 0 102 0v-3a1 1 0 00-1.016-1.014z"/></g><defs><clipPath id="clip0_6_522"><path d="M0 0h30v30H0z"/></clipPath></defs></symbol> <view id="icon-github-view" viewBox="0 0 25 26"/><view id="icon-moon-view" viewBox="0 36 24 24"/><view id="icon-search-view" viewBox="0 70 25 26"/><view id="icon-sun-view" viewBox="0 106 30 30"/> <use xlink:href="#icon-github" x="0" y="0" width="25" height="26"/><use xlink:href="#icon-moon" x="0" y="36" width="24" height="24"/><use xlink:href="#icon-search" x="0" y="70" width="25" height="26"/><use xlink:href="#icon-sun" x="0" y="106" width="30" height="30"/></svg>