<svg width="18" height="18" viewBox="0 0 18 18" fill="none" xmlns="http://www.w3.org/2000/svg">
    <path d="M14.7604 1.43994H3.24043C2.24683 1.43994 1.44043 2.24634 1.44043 3.23994V14.7599C1.44043 15.7535 2.24683 16.5599 3.24043 16.5599H14.7604C15.754 16.5599 16.5604 15.7535 16.5604 14.7599V3.23994C16.5604 2.24634 15.754 1.43994 14.7604 1.43994ZM6.12043 7.19994V14.0399H3.96043V7.19994H6.12043ZM3.96043 5.20914C3.96043 4.70514 4.39243 4.31994 5.04043 4.31994C5.68843 4.31994 6.09523 4.70514 6.12043 5.20914C6.12043 5.71314 5.71723 6.11994 5.04043 6.11994C4.39243 6.11994 3.96043 5.71314 3.96043 5.20914ZM14.0404 14.0399H11.8804C11.8804 14.0399 11.8804 10.7063 11.8804 10.4399C11.8804 9.71994 11.5204 8.99994 10.6204 8.98554H10.5916C9.72043 8.98554 9.36043 9.72714 9.36043 10.4399C9.36043 10.7675 9.36043 14.0399 9.36043 14.0399H7.20043V7.19994H9.36043V8.12154C9.36043 8.12154 10.0552 7.19994 11.452 7.19994C12.8812 7.19994 14.0404 8.18274 14.0404 10.1735V14.0399Z" fill="black"/>
</svg>
