<svg width="25" height="26" viewBox="0 0 25 26" fill="none" xmlns="http://www.w3.org/2000/svg">
<path d="M12.5 3C6.9775 3 2.5 7.4775 2.5 13C2.5 17.6858 5.72667 21.6067 10.0767 22.6917C10.03 22.5567 10 22.4 10 22.2058V20.4967C9.59417 20.4967 8.91417 20.4967 8.74333 20.4967C8.05917 20.4967 7.45083 20.2025 7.15583 19.6558C6.82833 19.0483 6.77167 18.1192 5.96 17.5508C5.71917 17.3617 5.9025 17.1458 6.18 17.175C6.6925 17.32 7.1175 17.6717 7.5175 18.1933C7.91583 18.7158 8.10333 18.8342 8.8475 18.8342C9.20833 18.8342 9.74833 18.8133 10.2567 18.7333C10.53 18.0392 11.0025 17.4 11.58 17.0983C8.25 16.7558 6.66083 15.0992 6.66083 12.85C6.66083 11.8817 7.07333 10.945 7.77417 10.1558C7.54417 9.3725 7.255 7.775 7.8625 7.16667C9.36083 7.16667 10.2667 8.13833 10.4842 8.40083C11.2308 8.145 12.0508 8 12.9125 8C13.7758 8 14.5992 8.145 15.3475 8.4025C15.5625 8.14167 16.4692 7.16667 17.9708 7.16667C18.5808 7.77583 18.2883 9.38 18.0558 10.1617C18.7525 10.9492 19.1625 11.8833 19.1625 12.85C19.1625 15.0975 17.5758 16.7533 14.2508 17.0975C15.1658 17.575 15.8333 18.9167 15.8333 19.9275V22.2058C15.8333 22.2925 15.8142 22.355 15.8042 22.4292C19.7008 21.0633 22.5 17.3633 22.5 13C22.5 7.4775 18.0225 3 12.5 3Z" fill="#333333"/>
</svg>
