<svg width="30" height="30" viewBox="0 0 30 30" fill="none" xmlns="http://www.w3.org/2000/svg">
<g clip-path="url(#clip0_6_522)">
<path d="M14.984 0.986328C14.7191 0.990468 14.4667 1.09953 14.2821 1.28957C14.0976 1.47962 13.996 1.73512 13.9996 2V5C13.9977 5.13251 14.0222 5.26407 14.0716 5.38704C14.121 5.51001 14.1944 5.62193 14.2874 5.7163C14.3805 5.81067 14.4914 5.88561 14.6136 5.93676C14.7359 5.9879 14.8671 6.01424 14.9996 6.01424C15.1321 6.01424 15.2633 5.9879 15.3856 5.93676C15.5078 5.88561 15.6187 5.81067 15.7118 5.7163C15.8048 5.62193 15.8782 5.51001 15.9276 5.38704C15.977 5.26407 16.0015 5.13251 15.9996 5V2C16.0014 1.86621 15.9764 1.73341 15.926 1.60947C15.8756 1.48553 15.8008 1.37297 15.7061 1.27845C15.6114 1.18393 15.4987 1.10937 15.3746 1.05919C15.2506 1.00902 15.1178 0.984238 14.984 0.986328ZM5.79647 4.79883C5.5977 4.79927 5.40357 4.85893 5.23887 4.97019C5.07416 5.08145 4.94634 5.23927 4.87172 5.4235C4.79711 5.60773 4.77908 5.81002 4.81995 6.00454C4.86081 6.19906 4.95871 6.37699 5.10116 6.51562L7.22225 8.63672C7.3144 8.73269 7.42476 8.80931 7.54689 8.86209C7.66902 8.91488 7.80045 8.94276 7.93349 8.94411C8.06653 8.94547 8.1985 8.92026 8.32168 8.86997C8.44486 8.81968 8.55676 8.74532 8.65084 8.65124C8.74492 8.55717 8.81928 8.44526 8.86957 8.32209C8.91985 8.19891 8.94506 8.06694 8.94371 7.9339C8.94236 7.80086 8.91447 7.66943 8.86169 7.5473C8.80891 7.42517 8.73228 7.3148 8.63631 7.22266L6.51522 5.10156C6.4218 5.00553 6.31004 4.92925 6.18657 4.87725C6.0631 4.82524 5.93044 4.79857 5.79647 4.79883ZM24.1715 4.79883C23.9117 4.80657 23.6651 4.91515 23.484 5.10156L21.3629 7.22266C21.2669 7.3148 21.1903 7.42517 21.1375 7.5473C21.0847 7.66943 21.0568 7.80086 21.0555 7.9339C21.0541 8.06694 21.0793 8.19891 21.1296 8.32208C21.1799 8.44526 21.2543 8.55716 21.3484 8.65124C21.4424 8.74532 21.5543 8.81968 21.6775 8.86997C21.8007 8.92026 21.9327 8.94546 22.0657 8.94411C22.1987 8.94276 22.3302 8.91487 22.4523 8.86209C22.5744 8.80931 22.6848 8.73269 22.7769 8.63672L24.898 6.51562C25.0425 6.37516 25.1412 6.19432 25.1812 5.9968C25.2212 5.79928 25.2005 5.5943 25.122 5.40871C25.0434 5.22313 24.9107 5.0656 24.741 4.95677C24.5714 4.84794 24.3729 4.79289 24.1715 4.79883ZM14.9996 8C13.1431 8 11.3626 8.7375 10.0498 10.0503C8.73709 11.363 7.99959 13.1435 7.99959 15C7.99959 16.8565 8.73709 18.637 10.0498 19.9497C11.3626 21.2625 13.1431 22 14.9996 22C16.8561 22 18.6366 21.2625 19.9493 19.9497C21.2621 18.637 21.9996 16.8565 21.9996 15C21.9996 13.1435 21.2621 11.363 19.9493 10.0503C18.6366 8.7375 16.8561 8 14.9996 8ZM1.99959 14C1.86708 13.9981 1.73552 14.0226 1.61255 14.072C1.48958 14.1214 1.37766 14.1948 1.28329 14.2878C1.18892 14.3809 1.11399 14.4918 1.06284 14.614C1.01169 14.7363 0.985352 14.8675 0.985352 15C0.985352 15.1325 1.01169 15.2637 1.06284 15.386C1.11399 15.5082 1.18892 15.6191 1.28329 15.7122C1.37766 15.8052 1.48958 15.8786 1.61255 15.928C1.73552 15.9774 1.86708 16.0019 1.99959 16H4.99959C5.13211 16.0019 5.26367 15.9774 5.38664 15.928C5.50961 15.8786 5.62153 15.8052 5.7159 15.7122C5.81027 15.6191 5.8852 15.5082 5.93635 15.386C5.9875 15.2637 6.01384 15.1325 6.01384 15C6.01384 14.8675 5.9875 14.7363 5.93635 14.614C5.8852 14.4918 5.81027 14.3809 5.7159 14.2878C5.62153 14.1948 5.50961 14.1214 5.38664 14.072C5.26367 14.0226 5.13211 13.9981 4.99959 14H1.99959ZM24.9996 14C24.8671 13.9981 24.7355 14.0226 24.6126 14.072C24.4896 14.1214 24.3777 14.1948 24.2833 14.2878C24.1889 14.3809 24.114 14.4918 24.0628 14.614C24.0117 14.7363 23.9854 14.8675 23.9854 15C23.9854 15.1325 24.0117 15.2637 24.0628 15.386C24.114 15.5082 24.1889 15.6191 24.2833 15.7122C24.3777 15.8052 24.4896 15.8786 24.6126 15.928C24.7355 15.9774 24.8671 16.0019 24.9996 16H27.9996C28.1321 16.0019 28.2637 15.9774 28.3866 15.928C28.5096 15.8786 28.6215 15.8052 28.7159 15.7122C28.8103 15.6191 28.8852 15.5082 28.9363 15.386C28.9875 15.2637 29.0138 15.1325 29.0138 15C29.0138 14.8675 28.9875 14.7363 28.9363 14.614C28.8852 14.4918 28.8103 14.3809 28.7159 14.2878C28.6215 14.1948 28.5096 14.1214 28.3866 14.072C28.2637 14.0226 28.1321 13.9981 27.9996 14H24.9996ZM7.90975 21.0605C7.64995 21.0683 7.40337 21.1769 7.22225 21.3633L5.10116 23.4844C5.00519 23.5765 4.92857 23.6869 4.87578 23.809C4.823 23.9311 4.79512 24.0626 4.79376 24.1956C4.79241 24.3287 4.81762 24.4606 4.86791 24.5838C4.9182 24.707 4.99256 24.8189 5.08664 24.913C5.18071 25.007 5.29262 25.0814 5.41579 25.1317C5.53897 25.182 5.67094 25.2072 5.80398 25.2058C5.93702 25.2045 6.06845 25.1766 6.19058 25.1238C6.31271 25.071 6.42307 24.9944 6.51522 24.8984L8.63631 22.7773C8.78082 22.6369 8.87951 22.456 8.91947 22.2585C8.95943 22.061 8.93879 21.856 8.86025 21.6704C8.78171 21.4848 8.64893 21.3273 8.47932 21.2185C8.30971 21.1097 8.11118 21.0546 7.90975 21.0605ZM22.0601 21.0605C21.8612 21.0606 21.6668 21.12 21.5018 21.2311C21.3368 21.3422 21.2087 21.5 21.1338 21.6843C21.059 21.8686 21.0408 22.0711 21.0816 22.2658C21.1224 22.4605 21.2203 22.6386 21.3629 22.7773L23.484 24.8984C23.5761 24.9944 23.6865 25.071 23.8086 25.1238C23.9307 25.1766 24.0622 25.2045 24.1952 25.2058C24.3282 25.2072 24.4602 25.182 24.5834 25.1317C24.7066 25.0814 24.8185 25.007 24.9125 24.913C25.0066 24.8189 25.081 24.707 25.1313 24.5838C25.1816 24.4606 25.2068 24.3287 25.2054 24.1956C25.2041 24.0626 25.1762 23.9311 25.1234 23.809C25.0706 23.6869 24.994 23.5765 24.898 23.4844L22.7769 21.3633C22.6837 21.2675 22.5723 21.1913 22.4492 21.1393C22.3261 21.0873 22.1938 21.0606 22.0601 21.0605ZM14.984 23.9863C14.7191 23.9905 14.4667 24.0995 14.2821 24.2896C14.0976 24.4796 13.996 24.7351 13.9996 25V28C13.9977 28.1325 14.0222 28.2641 14.0716 28.387C14.121 28.51 14.1944 28.6219 14.2874 28.7163C14.3805 28.8107 14.4914 28.8856 14.6136 28.9368C14.7359 28.9879 14.8671 29.0142 14.9996 29.0142C15.1321 29.0142 15.2633 28.9879 15.3856 28.9368C15.5078 28.8856 15.6187 28.8107 15.7118 28.7163C15.8048 28.6219 15.8782 28.51 15.9276 28.387C15.977 28.2641 16.0015 28.1325 15.9996 28V25C16.0014 24.8662 15.9764 24.7334 15.926 24.6095C15.8756 24.4855 15.8008 24.373 15.7061 24.2784C15.6114 24.1839 15.4987 24.1094 15.3746 24.0592C15.2506 24.009 15.1178 23.9842 14.984 23.9863Z" fill="#333333"/>
</g>
<defs>
<clipPath id="clip0_6_522">
<rect width="30" height="30" fill="white"/>
</clipPath>
</defs>
</svg>
