<svg width="12" height="12" viewBox="0 0 12 12" fill="none" xmlns="http://www.w3.org/2000/svg">
<g clip-path="url(#clip0_2_177)">
<path d="M11.5241 3.05996C11.5223 3.04683 11.52 3.03521 11.517 3.02433L11.5174 3.02621C11.5057 2.97596 11.4821 2.93283 11.4491 2.89796L9.08775 0.536959C9.05287 0.504334 9.00975 0.480709 8.96175 0.469084L8.95988 0.468709C8.95012 0.465709 8.93812 0.463459 8.92575 0.461584H8.92425C8.9145 0.458959 8.90212 0.456334 8.88975 0.454834H8.88825H5.34637C5.19112 0.454834 5.06512 0.580834 5.06512 0.736084V9.00033C5.06512 9.15558 5.19112 9.28158 5.34637 9.28158H11.2496C11.4049 9.28158 11.5309 9.15558 11.5309 9.00033V3.09708C11.529 3.08283 11.5264 3.07046 11.5234 3.05846L11.5238 3.06033L11.5241 3.05996ZM9.16987 1.41483L10.5709 2.81546H9.16987V1.41483ZM5.628 8.71871V1.01696H8.60737V3.09671C8.60737 3.25196 8.73337 3.37796 8.88862 3.37796H10.9688V8.71871H5.628ZM6.65325 10.2187C6.498 10.2187 6.372 10.3447 6.372 10.5V10.9762H1.03125V3.27408H3.75C3.90525 3.27408 4.03125 3.14808 4.03125 2.99283C4.03125 2.83758 3.90525 2.71158 3.75 2.71158H0.75C0.59475 2.71158 0.46875 2.83758 0.46875 2.99283V11.2575C0.46875 11.4127 0.59475 11.5387 0.75 11.5387H6.65325C6.8085 11.5387 6.9345 11.4127 6.9345 11.2575V10.5C6.9345 10.3447 6.8085 10.2187 6.65325 10.2187Z" fill="#fff"/>
</g>
<defs>
<clipPath id="clip0_2_177">
<rect width="12" height="12" fill="white"/>
</clipPath>
</defs>
</svg>
